<?xml version="1.0" encoding="UTF-8" standalone="no"?>
<!-- Created with Inkscape (http://www.inkscape.org/) -->

<svg
   xmlns:dc="http://purl.org/dc/elements/1.1/"
   xmlns:cc="http://creativecommons.org/ns#"
   xmlns:rdf="http://www.w3.org/1999/02/22-rdf-syntax-ns#"
   xmlns:svg="http://www.w3.org/2000/svg"
   xmlns="http://www.w3.org/2000/svg"
   xmlns:sodipodi="http://sodipodi.sourceforge.net/DTD/sodipodi-0.dtd"
   xmlns:inkscape="http://www.inkscape.org/namespaces/inkscape"
   width="76.536285"
   height="139.38939"
   id="svg4559"
   version="1.1"
   inkscape:version="0.48.0 r9654"
   sodipodi:docname="New document 14">
  <defs
     id="defs4561" />
  <sodipodi:namedview
     id="base"
     pagecolor="#ffffff"
     bordercolor="#666666"
     borderopacity="1.0"
     inkscape:pageopacity="0.0"
     inkscape:pageshadow="2"
     inkscape:zoom="0.35"
     inkscape:cx="38.284256"
     inkscape:cy="69.694185"
     inkscape:document-units="px"
     inkscape:current-layer="layer1"
     showgrid="false"
     fit-margin-top="0"
     fit-margin-left="0"
     fit-margin-right="0"
     fit-margin-bottom="0"
     inkscape:window-width="469"
     inkscape:window-height="425"
     inkscape:window-x="1149"
     inkscape:window-y="125"
     inkscape:window-maximized="0" />
  <metadata
     id="metadata4564">
    <rdf:RDF>
      <cc:Work
         rdf:about="">
        <dc:format>image/svg+xml</dc:format>
        <dc:type
           rdf:resource="http://purl.org/dc/dcmitype/StillImage" />
        <dc:title></dc:title>
      </cc:Work>
    </rdf:RDF>
  </metadata>
  <g
     inkscape:label="Layer 1"
     inkscape:groupmode="layer"
     id="layer1"
     transform="translate(-336.71574,-462.66698)">
    <g
       transform="translate(86.364857,140.98422)"
       id="g4032">
      <g
         transform="matrix(2.0460828,0,0,-2.0460828,288.71494,323.92066)"
         id="g3003">
        <path
           id="path3005"
           style="fill:#9fc418;fill-opacity:1;fill-rule:nonzero;stroke:none"
           d="m 0,0 c 10.313,0 17.563,-7.5 17.563,-16.938 0,-13.375 -10.938,-13.312 -13.375,-30.5 -2.323,-16.37 -2.375,-18.5 -4.188,-18.5 l -0.078,0 c -1.814,0 -1.866,2.13 -4.189,18.5 -2.437,17.188 -13.375,17.125 -13.375,30.5 C -17.642,-7.5 -10.392,0 -0.078,0 L 0,0 z"
           inkscape:connector-curvature="0" />
      </g>
      <g
         transform="matrix(2.0460828,0,0,-2.0460828,288.71494,323.92066)"
         id="g3007">
        <path
           id="path3009"
           style="fill:none;stroke:#1d1d1b;stroke-width:2.20000005;stroke-linecap:butt;stroke-linejoin:miter;stroke-miterlimit:4;stroke-opacity:1;stroke-dasharray:none"
           d="m 0,0 c 10.313,0 17.563,-7.5 17.563,-16.938 0,-13.375 -10.938,-13.312 -13.375,-30.5 -2.323,-16.37 -2.375,-18.5 -4.188,-18.5 l -0.078,0 c -1.813,0 -1.866,2.13 -4.188,18.5 -2.437,17.188 -13.375,17.125 -13.375,30.5 C -17.641,-7.5 -10.391,0 -0.078,0 L 0,0 z"
           inkscape:connector-curvature="0" />
      </g>
      <g
         transform="matrix(2.0460828,0,0,-2.0460828,304.95777,360.74811)"
         id="g3011">
        <path
           id="path3013"
           style="fill:#ffffff;fill-opacity:1;fill-rule:nonzero;stroke:none"
           d="m 0,0 c 0,-4.267 -3.459,-7.725 -7.726,-7.725 -4.266,0 -7.723,3.458 -7.723,7.725 0,4.267 3.457,7.725 7.723,7.725 C -3.459,7.725 0,4.267 0,0"
           inkscape:connector-curvature="0" />
      </g>
      <g
         transform="matrix(2.0460828,0,0,-2.0460828,304.95777,360.74811)"
         id="g3015">
        <path
           id="path3017"
           style="fill:none;stroke:#ffffff;stroke-width:4;stroke-linecap:round;stroke-linejoin:round;stroke-miterlimit:4;stroke-opacity:1;stroke-dasharray:none"
           d="m 0,0 c 0,-4.267 -3.459,-7.725 -7.726,-7.725 -4.266,0 -7.723,3.458 -7.723,7.725 0,4.267 3.457,7.725 7.723,7.725 C -3.459,7.725 0,4.267 0,0 z"
           inkscape:connector-curvature="0" />
      </g>
      <g
         transform="matrix(2.0460828,0,0,-2.0460828,304.95777,360.74811)"
         id="g3019">
        <path
           id="path3021"
           style="fill:#ffffff;fill-opacity:1;fill-rule:nonzero;stroke:none"
           d="m 0,0 c 0,-4.267 -3.459,-7.725 -7.726,-7.725 -4.266,0 -7.723,3.458 -7.723,7.725 0,4.267 3.457,7.725 7.723,7.725 C -3.459,7.725 0,4.267 0,0"
           inkscape:connector-curvature="0" />
      </g>
      <g
         transform="matrix(2.0460828,0,0,-2.0460828,304.95777,360.74811)"
         id="g3023">
        <path
           id="path3025"
           style="fill:none;stroke:#1d1d1b;stroke-width:1.30299997;stroke-linecap:round;stroke-linejoin:round;stroke-miterlimit:4;stroke-opacity:1;stroke-dasharray:none"
           d="m 0,0 c 0,-4.267 -3.459,-7.725 -7.726,-7.725 -4.266,0 -7.723,3.458 -7.723,7.725 0,4.267 3.457,7.725 7.723,7.725 C -3.459,7.725 0,4.267 0,0 z"
           inkscape:connector-curvature="0" />
      </g>
      <g
         transform="matrix(2.0460828,0,0,-2.0460828,295.14681,360.74811)"
         id="g3027">
        <path
           id="path3029"
           style="fill:#1d1d1b;fill-opacity:1;fill-rule:nonzero;stroke:none"
           d="m 0,0 c 0,-1.617 -1.313,-2.929 -2.931,-2.929 -1.616,0 -2.928,1.312 -2.928,2.929 0,1.618 1.312,2.929 2.928,2.929 C -1.313,2.929 0,1.618 0,0"
           inkscape:connector-curvature="0" />
      </g>
    </g>
  </g>
</svg>
